<?xml version="1.0" encoding="utf-8"?>
<!-- Generator: Adobe Illustrator 24.0.2, SVG Export Plug-In . SVG Version: 6.00 Build 0)  -->
<svg version="1.1" id="Calque_1" xmlns="http://www.w3.org/2000/svg" xmlns:xlink="http://www.w3.org/1999/xlink" x="0px" y="0px"
	 viewBox="0 0 1000 1000" style="enable-background:new 0 0 1000 1000;" xml:space="preserve">
<style type="text/css">
	.st0{fill:#FFFFFF;}
</style>
<g>
	<path class="st0" d="M429.94,102.64c-183.41,0-331.96,148.55-331.96,331.96c0,146.89,95.02,270.96,226.97,314.94
		c16.6,2.9,22.82-7.05,22.82-15.77c0-7.88-0.41-34.03-0.41-61.83c-83.4,15.35-104.98-20.33-111.62-39
		c-3.73-9.54-19.92-39-34.03-46.89c-11.62-6.22-28.22-21.58-0.41-21.99c26.14-0.41,44.81,24.07,51.04,34.03
		c29.88,50.21,77.59,36.1,96.68,27.39c2.9-21.58,11.62-36.1,21.16-44.4c-73.86-8.3-151.04-36.93-151.04-163.9
		c0-36.1,12.86-65.98,34.03-89.21c-3.32-8.3-14.94-42.32,3.32-87.97c0,0,27.8-8.71,91.29,34.03c26.56-7.47,54.77-11.2,82.99-11.2
		c28.22,0,56.43,3.73,82.99,11.2c63.49-43.15,91.29-34.03,91.29-34.03c18.26,45.64,6.64,79.67,3.32,87.97
		c21.16,23.24,34.03,52.7,34.03,89.21c0,127.39-77.59,155.6-151.46,163.9c12.03,10.37,22.41,30.29,22.41,61.41
		c0,44.4-0.41,80.08-0.41,91.29c0,8.71,6.22,19.09,22.82,15.77c131.12-43.98,226.15-168.47,226.15-314.94
		C761.89,251.19,613.34,102.64,429.94,102.64z"/>
	<path class="st0" d="M944.78,869.67L741.13,666.03c19.45-25.65,35.61-53.56,48.25-83.45c20.34-48.1,30.66-99.19,30.66-151.85
		s-10.32-103.75-30.66-151.85c-19.65-46.46-47.78-88.17-83.6-124s-77.54-63.95-124-83.6c-48.1-20.34-99.19-30.66-151.85-30.66
		c-52.66,0-103.75,10.32-151.85,30.66c-46.46,19.65-88.17,47.78-124,83.6c-35.82,35.82-63.95,77.54-83.6,124
		c-20.35,48.1-30.66,99.19-30.66,151.85s10.32,103.75,30.66,151.85c19.65,46.46,47.78,88.17,83.6,124
		c35.82,35.82,77.54,63.95,124,83.6c48.1,20.34,99.19,30.66,151.85,30.66c52.66,0,103.75-10.32,151.85-30.66
		c30.58-12.94,59.1-29.57,85.24-49.63l203.44,203.44c9.92,9.92,23.12,15.39,37.16,15.39s27.23-5.47,37.16-15.39
		C965.27,923.5,965.27,890.16,944.78,869.67z M573.87,771.44c-45.58,19.28-94,29.05-143.93,29.05s-98.35-9.77-143.93-29.05
		c-44.03-18.62-83.58-45.29-117.54-79.25c-33.96-33.96-60.63-73.51-79.25-117.54c-19.28-45.58-29.05-94-29.05-143.93
		s9.78-98.35,29.05-143.93c18.62-44.03,45.29-83.58,79.25-117.54c33.96-33.96,73.51-60.62,117.54-79.25
		c45.58-19.28,94-29.05,143.93-29.05s98.35,9.78,143.93,29.05c44.03,18.62,83.58,45.29,117.54,79.25
		c33.96,33.96,60.63,73.51,79.25,117.54c19.28,45.58,29.05,94,29.05,143.93s-9.77,98.35-29.05,143.93
		c-18.62,44.03-45.29,83.58-79.25,117.54C657.44,726.16,617.9,752.82,573.87,771.44z M930.4,929.61
		c-6.08,6.08-14.17,9.43-22.77,9.43s-16.69-3.35-22.77-9.43L682.93,727.68c7.86-6.71,15.49-13.74,22.86-21.1
		c7.9-7.9,15.41-16.11,22.56-24.58L930.4,884.06C942.95,896.62,942.95,917.05,930.4,929.61z"/>
</g>
</svg>
